<?xml version="1.0" ?><!DOCTYPE svg  PUBLIC '-//W3C//DTD SVG 1.1//EN'  'http://www.w3.org/Graphics/SVG/1.1/DTD/svg11.dtd'><svg enable-background="new 0 0 512 512" id="Layer_1" version="1.1" viewBox="0 0 512 512" xml:space="preserve" xmlns="http://www.w3.org/2000/svg" xmlns:xlink="http://www.w3.org/1999/xlink"><g><path d="M256.5,507.9c-137.3,0-248.7-112.8-248-252.5C9.1,116.9,120.7,4.8,259.7,6.2   c135.7,1.4,247,112.6,245.8,253.1C504.4,397.1,393.7,507.7,256.5,507.9z M257.5,25.9C133,25.3,29.3,126.6,28.1,254.5   C26.8,385,131,487,254.5,488.2c126,1.3,230.7-100.7,231.3-229.2C486.5,129.6,384.3,25.9,257.5,25.9z" fill="#A6C63E"/><path d="M257.4,199.7c30.5,0,61,0.1,91.5-0.1c3.8,0,5.1,0.9,5.1,4.9c-0.1,45-0.1,90-0.1,134.9c0,13-10,23-23.1,23.3   c-3.7,0.1-7.3,0.3-11-0.1c-3.7-0.3-4.9,0.9-4.8,4.7c0.2,14.5,0.2,29,0,43.5c-0.1,9.6-6.5,17.8-15.5,20.4   c-9.4,2.6-19.1-1.1-24.3-9.4c-2.2-3.6-3.3-7.6-3.3-11.9c0-14.2-0.1-28.3,0.1-42.5c0-3.6-0.6-5-4.6-4.8c-6.8,0.3-13.7,0.3-20.5,0   c-3.3-0.1-4.2,1-4.2,4.2c0.2,14.5,0.2,29,0,43.5c-0.1,10.3-7.1,19-16.6,21.1c-9.8,2.2-19.7-2.4-24.3-11.5   c-1.7-3.3-2.3-6.9-2.3-10.6c0.1-14-0.1-28,0.1-42c0.1-3.8-1.1-4.9-4.8-4.7c-5.1,0.1-10.3,0.6-15.4-0.5c-10.7-2.2-18.5-11-18.5-21.8   c-0.1-45.6,0-91.3-0.1-136.9c0-4.3,2.4-3.8,5.1-3.8C196.5,199.7,227,199.7,257.4,199.7z" fill="#A5C53B"/><path d="M256.9,191.1c-30.3,0-60.7,0-91,0c-6.3,0-6.3,0-5.5-6.5c3.5-29.5,18.6-51.4,43.6-66.9   c5.8-3.6,5.8-3.5,2.4-9.7c-3.6-6.4-7-12.8-10.5-19.2c-1.1-1.9-2.3-4.2,0.2-5.7c2.7-1.5,3.8,1,4.9,2.8c4,7.3,8.1,14.5,12,21.9   c1.5,2.9,2.9,3.6,6.2,2.3c25.5-9.7,51-9.9,76.5,0c3.2,1.2,4.8,0.8,6.4-2.1c3.7-7.1,7.6-14.1,11.5-21c1.2-2.1,2.2-5.6,5.1-4.2   c3.6,1.8,1.1,4.9-0.1,7.3c-3.6,6.7-7.2,13.5-11.1,20.1c-2,3.3-1.3,4.8,1.9,6.5c16.6,9.5,29.4,22.8,37.6,40.2   c4.4,9.3,6.9,19,7.6,29.2c0.3,4-0.9,5-4.8,5C318.6,191,287.8,191.1,256.9,191.1z M309.8,148.5c-0.1-4.3-3.8-7.7-8.2-7.7   c-4.8,0-8,3.6-7.8,8.4c0.2,4.1,3.8,7.6,7.8,7.6C305.9,156.9,309.9,152.8,309.8,148.5z M213.1,140.8c-4.5,0-8,3.4-8.1,7.8   c-0.1,4.1,3.8,8.1,7.8,8.2c4.4,0.1,8.3-3.7,8.2-8.2C221.1,144.2,217.6,140.8,213.1,140.8z" fill="#A5C53B"/><path d="M362.1,262.1c0-14.8-0.1-29.7,0-44.5c0.1-10.7,6.9-19,16.8-21.5c9.2-2.3,19,2.1,23.7,10.7   c2,3.7,2.9,7.8,2.9,12c0,28.8,0.1,57.7,0,86.5c-0.1,18.9-17.7,29.8-33,20.6c-7.4-4.4-10.4-11.4-10.5-19.8   C362.1,291.5,362.1,276.8,362.1,262.1z" fill="#A6C63E"/><path d="M152.3,262.4c0,14.7,0.1,29.3,0,44c-0.1,13-8.8,22.4-20.9,22.6s-22-8.9-22.2-21.6   c-0.3-30.1-0.3-60.3,0-90.4c0.1-12.5,10.1-21.6,22.4-21.3c12,0.3,20.7,9.5,20.7,22.2C152.4,232.8,152.3,247.6,152.3,262.4z" fill="#A5C53B"/><path d="M309.8,148.5c0.1,4.3-3.9,8.4-8.2,8.4c-4,0-7.6-3.5-7.8-7.6c-0.2-4.9,3-8.4,7.8-8.4   C306,140.8,309.7,144.2,309.8,148.5z" fill="#FEFEFD"/><path d="M213.1,140.8c4.5,0,8,3.3,8,7.8c0.1,4.5-3.8,8.4-8.2,8.2c-4.1-0.1-7.9-4.1-7.8-8.2   C205.1,144.3,208.6,140.9,213.1,140.8z" fill="#FEFEFD"/></g></svg>